<svg width="32" height="32" viewBox="0 0 32 32" fill="none" xmlns="http://www.w3.org/2000/svg">
<g clip-path="url(#clip0_25_21)">
<rect width="32" height="32" fill="white"/>
<path d="M26.38 28.39C27.14 28.39 27.79 28.13 28.33 27.61C28.87 27.07 29.14 26.43 29.14 25.69C29.14 24.93 28.87 24.29 28.33 23.77C27.79 23.23 27.14 22.96 26.38 22.96C25.64 22.96 25 23.23 24.46 23.77C23.9 24.31 23.62 24.95 23.62 25.69C23.62 26.43 23.9 27.07 24.46 27.61C25 28.13 25.64 28.39 26.38 28.39ZM18.2015 28H23.0615V5.8H18.2015V14.56H9.62148V5.8H4.76148V28H9.62148V19.06H18.2015V28Z" fill="black"/>
</g>
<defs>
<clipPath id="clip0_25_21">
<rect width="32" height="32" fill="white"/>
</clipPath>
</defs>
</svg>
